<?xml version="1.0" encoding="UTF-8" standalone="no"?>
<!DOCTYPE svg PUBLIC "-//W3C//DTD SVG 1.1//EN" "http://www.w3.org/Graphics/SVG/1.1/DTD/svg11.dtd">
<svg version="1.1" xmlns="http://www.w3.org/2000/svg" xmlns:xlink="http://www.w3.org/1999/xlink" preserveAspectRatio="xMidYMid meet" viewBox="0 0 640 640" width="640" height="640"><defs><path d="M57.07 491.67L320 638.28L320 485.29L57.07 334.44L57.07 491.67Z" id="aeCIBoXxK"></path><path d="M320 153.93L582.93 297.47L582.93 147.69L320 0L320 153.93Z" id="apSw8S70X"></path><path d="M57.07 147.71L320 1.1L320 154.09L57.07 304.94L57.07 147.71Z" id="e3FKpXGz2l"></path><path d="M320 484.34L582.93 340.81L582.93 490.58L320 638.28L320 484.34Z" id="a2qk5QdaRj"></path><path d="M203 242.63L320 177.63L320 245.46L203 312.34L203 242.63Z" id="f1aVqiYAVp"></path><path d="M320 388.81L437 323.81L437 391.64L320 458.52L320 388.81Z" id="c2wjO26B4j"></path><path d="M320 247.34L437 312.34L437 244.51L320 177.63L320 247.34Z" id="l9SaY0Ux"></path><path d="M203 393.52L320 458.52L320 390.7L203 323.81L203 393.52Z" id="b1u9lx9jV0"></path></defs><g><g><g><use xlink:href="#aeCIBoXxK" opacity="1" fill="#293e55" fill-opacity="1"></use><g><use xlink:href="#aeCIBoXxK" opacity="1" fill-opacity="0" stroke="#000000" stroke-width="0" stroke-opacity="1"></use></g></g><g><use xlink:href="#apSw8S70X" opacity="1" fill="#293e55" fill-opacity="1"></use><g><use xlink:href="#apSw8S70X" opacity="1" fill-opacity="0" stroke="#000000" stroke-width="0" stroke-opacity="1"></use></g></g><g><use xlink:href="#e3FKpXGz2l" opacity="1" fill="#7a838e" fill-opacity="1"></use><g><use xlink:href="#e3FKpXGz2l" opacity="1" fill-opacity="0" stroke="#000000" stroke-width="0" stroke-opacity="1"></use></g></g><g><use xlink:href="#a2qk5QdaRj" opacity="1" fill="#7a838e" fill-opacity="1"></use><g><use xlink:href="#a2qk5QdaRj" opacity="1" fill-opacity="0" stroke="#000000" stroke-width="0" stroke-opacity="1"></use></g></g><g><use xlink:href="#f1aVqiYAVp" opacity="1" fill="#293e55" fill-opacity="1"></use><g><use xlink:href="#f1aVqiYAVp" opacity="1" fill-opacity="0" stroke="#000000" stroke-width="0" stroke-opacity="1"></use></g></g><g><use xlink:href="#c2wjO26B4j" opacity="1" fill="#293e55" fill-opacity="1"></use><g><use xlink:href="#c2wjO26B4j" opacity="1" fill-opacity="0" stroke="#000000" stroke-width="0" stroke-opacity="1"></use></g></g><g><use xlink:href="#l9SaY0Ux" opacity="1" fill="#7a838e" fill-opacity="1"></use><g><use xlink:href="#l9SaY0Ux" opacity="1" fill-opacity="0" stroke="#000000" stroke-width="0" stroke-opacity="1"></use></g></g><g><use xlink:href="#b1u9lx9jV0" opacity="1" fill="#7a838e" fill-opacity="1"></use><g><use xlink:href="#b1u9lx9jV0" opacity="1" fill-opacity="0" stroke="#000000" stroke-width="0" stroke-opacity="1"></use></g></g></g></g></svg>