<!DOCTYPE svg PUBLIC "-//W3C//DTD SVG 20010904//EN" "http://www.w3.org/TR/2001/REC-SVG-20010904/DTD/svg10.dtd">
<svg version="1.0" xmlns="http://www.w3.org/2000/svg" width="394px" height="381px" viewBox="0 0 3940 3810" preserveAspectRatio="xMidYMid meet">
<g id="layer101" fill="#3798e5" stroke="none">
 <path d="M1045 3455 c-153 -24 -264 -77 -370 -176 -102 -96 -166 -211 -200 -359 -22 -96 -22 -1930 0 -2035 50 -242 217 -434 440 -510 124 -42 189 -45 1107 -45 1026 0 1045 1 1213 89 76 39 204 156 247 226 38 62 77 163 93 240 22 105 22 1939 0 2035 -34 148 -98 263 -200 359 -107 99 -215 151 -375 177 -118 19 -1833 19 -1955 -1z m1330 -519 c24 -17 23 -46 -9 -436 -19 -224 -21 -279 -11 -295 7 -12 54 -38 109 -60 53 -21 101 -44 107 -51 10 -13 66 -217 79 -294 5 -25 18 -79 29 -120 12 -41 18 -82 15 -92 -11 -37 -47 -30 -264 53 -485 184 -467 177 -492 165 -16 -8 -23 -20 -23 -41 0 -24 7 -33 35 -47 31 -16 423 -172 582 -231 35 -14 83 -34 108 -45 25 -11 64 -26 86 -33 36 -11 42 -19 61 -68 12 -31 58 -150 102 -265 84 -218 87 -236 41 -251 -14 -4 -43 6 -88 31 -392 217 -851 424 -1332 599 -85 31 -193 72 -240 90 -47 18 -113 43 -148 55 -97 35 -103 74 -19 127 301 188 744 614 1080 1038 166 209 154 199 192 171z"/>
 </g>
<g id="layer102" fill="#3ea1dc" stroke="none">
 <path d="M1045 3455 c-153 -24 -264 -77 -370 -176 -103 -97 -166 -210 -199 -360 -15 -66 -16 -144 -12 -729 3 -360 9 -711 14 -780 l8 -125 4 150 c2 83 5 135 7 118 4 -29 8 -33 34 -33 26 0 29 -3 29 -30 0 -27 3 -30 30 -30 27 0 30 -3 30 -30 0 -27 3 -30 30 -30 25 0 30 -4 30 -25 0 -21 5 -25 30 -25 25 0 30 -4 30 -24 0 -19 6 -25 28 -28 21 -2 28 -9 30 -31 3 -21 9 -27 28 -27 20 0 24 -5 24 -30 0 -27 3 -30 30 -30 27 0 30 -3 30 -30 0 -27 3 -30 30 -30 27 0 30 -3 30 -30 0 -27 3 -30 30 -30 27 0 30 -3 30 -30 0 -27 3 -30 30 -30 27 0 30 -3 30 -30 0 -27 3 -30 30 -30 27 0 30 -3 30 -30 0 -27 3 -30 30 -30 27 0 30 -3 30 -30 0 -27 3 -30 30 -30 25 0 30 -4 30 -25 0 -20 5 -25 25 -25 21 0 25 -5 25 -30 0 -27 3 -30 30 -30 27 0 30 -3 30 -30 0 -27 3 -30 30 -30 27 0 30 -3 30 -30 0 -27 3 -30 30 -30 27 0 30 -3 30 -30 0 -27 3 -30 30 -30 27 0 30 -3 30 -30 0 -27 3 -30 30 -30 27 0 30 -3 30 -30 0 -27 3 -30 30 -30 25 0 30 -4 30 -25 l0 -25 178 -3 c97 -1 -16 -4 -253 -6 -236 -2 -441 -7 -455 -11 -39 -13 1734 -12 1827 1 178 24 290 76 404 189 84 83 112 123 152 220 57 137 57 122 57 1155 0 1033 1 1004 -57 1145 -38 92 -84 160 -158 229 -107 99 -215 151 -375 177 -118 19 -1833 19 -1955 -1z m1330 -519 c24 -17 23 -46 -9 -436 -19 -224 -21 -279 -11 -295 7 -12 54 -38 109 -60 53 -21 101 -44 107 -51 10 -13 66 -217 79 -294 5 -25 18 -79 29 -120 12 -41 18 -82 15 -92 -11 -37 -47 -30 -264 53 -485 184 -467 177 -492 165 -16 -8 -23 -20 -23 -41 0 -24 7 -33 35 -47 31 -16 423 -172 582 -231 35 -14 83 -34 108 -45 25 -11 64 -26 86 -33 36 -11 42 -19 61 -68 12 -31 58 -150 102 -265 84 -218 87 -236 41 -251 -14 -4 -43 6 -88 31 -335 186 -946 467 -1182 544 -30 10 -120 43 -200 73 -80 30 -201 75 -270 101 -69 26 -130 53 -136 61 -6 8 -14 11 -19 7 -4 -4 0 8 9 26 9 17 36 44 59 59 301 188 744 614 1080 1038 166 209 154 199 192 171z"/>
 <path d="M462 990 c0 -14 2 -19 5 -12 2 6 2 18 0 25 -3 6 -5 1 -5 -13z"/>
 <path d="M470 900 c0 -7 3 -10 7 -7 3 4 3 10 0 14 -4 3 -7 0 -7 -7z"/>
 <path d="M480 850 c0 -7 3 -10 7 -7 3 4 3 10 0 14 -4 3 -7 0 -7 -7z"/>
 <path d="M490 820 c0 -7 3 -10 7 -7 3 4 3 10 0 14 -4 3 -7 0 -7 -7z"/>
 <path d="M510 760 c0 -7 3 -10 7 -7 3 4 3 10 0 14 -4 3 -7 0 -7 -7z"/>
 <path d="M540 691 c0 -6 4 -13 10 -16 6 -3 7 1 4 9 -7 18 -14 21 -14 7z"/>
 <path d="M565 650 c3 -5 8 -10 11 -10 3 0 2 5 -1 10 -3 6 -8 10 -11 10 -3 0 -2 -4 1 -10z"/>
 <path d="M585 620 c3 -5 8 -10 11 -10 3 0 2 5 -1 10 -3 6 -8 10 -11 10 -3 0 -2 -4 1 -10z"/>
 <path d="M665 532 c27 -28 53 -52 58 -52 5 0 2 6 -5 13 -111 99 -107 96 -53 39z"/>
 <path d="M770 446 c0 -3 14 -12 30 -21 17 -9 30 -13 30 -11 0 3 -13 12 -30 21 -16 9 -30 13 -30 11z"/>
 <path d="M875 391 c22 -11 47 -20 55 -20 17 0 -34 23 -71 33 -13 3 -6 -3 16 -13z"/>
 <path d="M965 360 c19 -8 73 -14 64 -6 -2 2 -22 6 -44 9 -28 5 -34 4 -20 -3z"/>
 <path d="M1058 343 c7 -3 16 -2 19 1 4 3 -2 6 -13 5 -11 0 -14 -3 -6 -6z"/>
 </g>
<g id="layer103" fill="#4db8bd" stroke="none">
 <path d="M1045 3455 c-166 -26 -274 -81 -390 -199 -80 -81 -144 -184 -129 -208 4 -7 3 -8 -4 -4 -11 6 -15 -5 -11 -30 0 -4 -4 -10 -9 -13 -5 -3 -17 -38 -26 -78 -19 -85 -19 -86 -6 -78 6 3 10 -3 10 -15 0 -12 -5 -18 -10 -15 -10 6 -3 -224 7 -235 3 -3 4 38 3 90 -2 116 -1 132 11 100 7 -22 8 -20 5 10 -4 35 -4 36 30 32 30 -4 34 -8 34 -33 0 -26 4 -29 30 -29 25 0 30 -4 30 -25 0 -21 5 -25 30 -25 27 0 30 -3 30 -30 0 -27 3 -30 30 -30 27 0 30 -3 30 -30 0 -27 3 -30 30 -30 27 0 30 -3 30 -30 0 -25 4 -30 25 -30 21 0 25 -5 25 -30 0 -27 3 -30 30 -30 27 0 30 -3 30 -30 0 -27 3 -30 30 -30 27 0 30 -3 30 -30 0 -27 3 -30 30 -30 27 0 30 -3 30 -30 0 -27 3 -30 30 -30 25 0 30 -4 30 -25 0 -21 5 -25 30 -25 27 0 30 -3 30 -30 0 -27 3 -30 30 -30 27 0 30 -3 30 -30 0 -27 3 -30 30 -30 27 0 30 -3 30 -30 0 -25 4 -30 25 -30 24 0 25 -3 25 -55 0 -30 0 -58 -1 -62 0 -5 -11 -7 -24 -6 -13 1 -26 -5 -29 -13 -4 -9 -2 -12 5 -8 10 6 28 -11 29 -26 0 -3 -13 -13 -29 -23 -27 -16 -29 -16 -35 0 -6 15 -8 15 -16 3 -6 -8 -10 -19 -10 -25 0 -5 4 -4 9 4 5 8 11 9 15 3 7 -12 -44 -48 -63 -44 -7 2 -10 -1 -7 -7 10 -16 -40 -44 -66 -36 -18 5 -20 4 -8 -4 13 -10 13 -12 0 -21 -8 -5 -20 -8 -27 -5 -7 2 -10 -2 -6 -11 3 -7 1 -14 -5 -14 -5 0 -12 -9 -15 -20 -4 -16 1 -13 26 11 18 17 83 67 145 111 62 44 111 82 108 86 -8 7 13 32 27 32 6 0 2 -7 -9 -15 -10 -8 -16 -15 -11 -15 18 0 266 223 412 371 175 178 312 332 448 504 166 209 154 199 192 171 24 -17 23 -46 -9 -436 -19 -224 -21 -279 -11 -295 7 -12 54 -38 109 -60 53 -21 101 -44 107 -51 10 -13 66 -217 79 -294 5 -25 18 -79 29 -120 12 -41 18 -82 15 -92 -14 -44 -20 -42 -542 158 -79 31 -150 53 -158 50 -8 -3 -13 -2 -10 3 10 15 -20 20 -45 7 -17 -8 -24 -20 -24 -41 0 -24 7 -33 35 -47 31 -16 423 -172 582 -231 35 -14 83 -34 108 -45 25 -11 64 -26 86 -33 36 -11 42 -19 61 -68 12 -31 58 -150 102 -265 84 -218 87 -236 41 -251 -14 -4 -43 6 -88 31 -150 83 -270 143 -276 137 -3 -4 -6 -1 -6 5 0 11 -101 60 -109 53 -2 -1 -7 2 -10 7 -12 19 -90 52 -107 45 -11 -4 -15 -2 -11 4 8 12 -40 36 -55 27 -6 -4 -8 -3 -5 3 8 12 -120 66 -135 57 -6 -4 -8 -3 -5 3 4 6 -20 22 -56 38 -90 39 -91 40 -84 28 4 -6 1 -14 -5 -17 -7 -3 -1 -4 13 -1 31 6 50 -12 45 -41 -4 -21 -4 -21 83 -26 29 -2 46 -8 48 -18 4 -13 3 -13 -6 0 -8 12 -11 12 -17 -3 -9 -26 1 -31 64 -37 53 -5 57 -7 60 -33 3 -21 9 -27 28 -27 20 0 24 -5 24 -30 0 -27 3 -30 30 -30 27 0 30 -3 30 -30 0 -27 3 -30 30 -30 27 0 30 -3 30 -30 0 -27 3 -30 30 -30 27 0 30 -3 30 -30 0 -27 3 -30 30 -30 25 0 30 -4 30 -25 0 -21 5 -25 30 -25 27 0 30 -3 30 -30 0 -25 4 -30 25 -30 21 0 25 -5 25 -30 0 -27 3 -30 30 -30 27 0 30 -3 30 -30 0 -25 4 -30 25 -30 21 0 25 -5 25 -30 0 -27 3 -30 30 -30 27 0 30 -3 30 -30 0 -27 3 -30 30 -30 27 0 30 -3 30 -30 0 -27 3 -30 30 -30 25 0 30 -4 30 -25 0 -14 6 -25 13 -26 6 -1 1 -5 -13 -10 -44 -15 89 0 150 18 108 31 280 138 264 165 -4 6 -3 8 4 4 23 -14 112 111 161 226 51 119 51 129 51 1145 0 1030 1 1002 -57 1143 -38 92 -84 160 -158 229 -107 99 -215 151 -375 177 -118 19 -1833 19 -1955 -1z m-315 -159 c0 -3 -5 -8 -12 -12 -7 -4 -8 -3 -4 4 7 12 16 16 16 8z m-231 -446 c0 -10 -3 -8 -9 5 -12 27 -12 43 0 25 5 -8 9 -22 9 -30z m1084 -695 c-3 -9 -8 -14 -10 -11 -3 3 -2 9 2 15 9 16 15 13 8 -4z m-223 -201 c0 -31 -2 -35 -15 -24 -8 7 -15 23 -15 36 0 15 6 24 15 24 11 0 15 -11 15 -36z m42 29 c-6 -2 -9 -10 -6 -15 4 -7 2 -8 -5 -4 -13 9 -5 26 12 25 9 0 8 -2 -1 -6z m601 -260 c-7 -2 -19 -2 -25 0 -7 3 -2 5 12 5 14 0 19 -2 13 -5z m97 -27 c0 -3 -5 -8 -12 -12 -7 -4 -8 -3 -4 4 7 12 16 16 16 8z m-1 -498 c10 -18 11 -20 0 -10 -7 6 -24 12 -38 13 -24 0 -24 1 -6 9 29 12 29 12 44 -12z m120 -65 c2 -2 -10 -3 -28 -3 -27 0 -30 2 -19 14 10 11 17 11 28 3 8 -6 17 -13 19 -14z m28 10 c-4 -3 -10 -3 -14 0 -3 4 0 7 7 7 7 0 10 -3 7 -7z m118 -63 c-3 -5 -12 -10 -18 -10 -7 0 -6 4 3 10 19 12 23 12 15 0z m124 -54 c9 -10 9 -16 1 -21 -6 -4 -14 -4 -17 -1 -4 3 0 6 7 6 9 0 7 5 -6 15 -10 8 -14 15 -8 15 6 0 17 -6 23 -14z m108 -53 c-4 -3 -10 -3 -14 0 -3 4 0 7 7 7 7 0 10 -3 7 -7z m0 -30 c-4 -3 -10 -3 -14 0 -3 4 0 7 7 7 7 0 10 -3 7 -7z m130 -50 c-4 -3 -10 -3 -14 0 -3 4 0 7 7 7 7 0 10 -3 7 -7z m260 -30 c-4 -3 -7 0 -7 7 0 7 3 10 7 7 3 -4 3 -10 0 -14z m-152 -23 c3 -5 4 -10 1 -10 -3 0 -8 5 -11 10 -3 6 -4 10 -1 10 3 0 8 -4 11 -10z m252 -446 c-3 -3 -12 -4 -19 -1 -8 3 -5 6 6 6 11 1 17 -2 13 -5z m60 0 c-3 -3 -12 -4 -19 -1 -8 3 -5 6 6 6 11 1 17 -2 13 -5z"/>
 <path d="M472 2315 c0 -16 2 -22 5 -12 2 9 2 23 0 30 -3 6 -5 -1 -5 -18z"/>
 <path d="M1256 1874 c-5 -14 -4 -15 9 -4 17 14 19 20 6 20 -5 0 -12 -7 -15 -16z"/>
 <path d="M1035 1640 c-3 -5 4 -14 16 -20 27 -15 30 -10 8 12 -10 10 -21 13 -24 8z"/>
 <path d="M1100 1602 c8 -5 26 -13 40 -16 17 -5 20 -4 10 2 -8 5 -26 13 -40 16 -17 5 -20 4 -10 -2z"/>
 <path d="M1190 1566 c14 -8 27 -12 29 -10 6 6 -1 11 -29 18 l-25 7 25 -15z"/>
 <path d="M1265 1538 c11 -7 29 -13 40 -15 16 -2 17 -1 5 6 -8 5 -26 12 -40 15 -23 6 -24 6 -5 -6z"/>
 <path d="M1193 1533 c4 -3 10 -3 14 0 3 4 0 7 -7 7 -7 0 -10 -3 -7 -7z"/>
 <path d="M1344 1505 c11 -8 29 -15 40 -15 18 0 18 -2 6 -10 -11 -8 -8 -9 13 -4 15 3 27 2 27 -4 0 -5 11 -9 25 -9 36 0 29 4 -56 32 -47 16 -67 19 -55 10z"/>
 <path d="M1323 1483 c4 -3 10 -3 14 0 3 4 0 7 -7 7 -7 0 -10 -3 -7 -7z"/>
 <path d="M1498 1452 c7 -5 10 -16 6 -28 -6 -18 -6 -18 10 1 16 20 16 20 33 -1 13 -15 25 -19 43 -15 21 6 17 9 -34 29 -60 23 -80 28 -58 14z"/>
 <path d="M1620 1400 c0 -5 5 -10 10 -10 6 0 10 5 10 10 0 6 -4 10 -10 10 -5 0 -10 -4 -10 -10z"/>
 <path d="M1663 1393 c4 -3 10 -3 14 0 3 4 0 7 -7 7 -7 0 -10 -3 -7 -7z"/>
 <path d="M1675 1373 l-20 -16 20 8 c11 4 29 7 40 7 16 -1 17 1 5 8 -20 13 -21 12 -45 -7z"/>
 <path d="M1625 1371 c-3 -5 -2 -12 3 -15 5 -3 9 1 9 9 0 17 -3 19 -12 6z"/>
 <path d="M1740 1360 c0 -5 5 -12 10 -15 6 -4 8 -12 4 -18 -3 -7 0 -5 8 4 8 10 20 14 32 9 19 -6 19 -7 -2 -12 -12 -4 -22 -11 -22 -17 0 -16 11 -13 39 8 l24 18 -47 16 c-25 9 -46 12 -46 7z"/>
 <path d="M1822 1315 c-17 -9 -20 -15 -12 -20 7 -4 15 -4 19 1 3 5 12 9 19 10 34 3 37 4 22 14 -18 12 -19 12 -48 -5z"/>
 <path d="M1926 1286 c6 -15 44 -29 44 -17 0 4 -11 13 -25 19 -19 9 -23 9 -19 -2z"/>
 <path d="M1910 1260 c0 -5 5 -10 11 -10 5 0 7 5 4 10 -3 6 -8 10 -11 10 -2 0 -4 -4 -4 -10z"/>
 <path d="M462 990 c0 -14 2 -19 5 -12 2 6 2 18 0 25 -3 6 -5 1 -5 -13z"/>
 <path d="M480 850 c0 -7 3 -10 7 -7 3 4 3 10 0 14 -4 3 -7 0 -7 -7z"/>
 <path d="M540 691 c0 -6 4 -13 10 -16 6 -3 7 1 4 9 -7 18 -14 21 -14 7z"/>
 <path d="M585 620 c3 -5 8 -10 11 -10 3 0 2 5 -1 10 -3 6 -8 10 -11 10 -3 0 -2 -4 1 -10z"/>
 <path d="M675 520 c3 -5 8 -10 11 -10 3 0 2 5 -1 10 -3 6 -8 10 -11 10 -3 0 -2 -4 1 -10z"/>
 <path d="M780 436 c0 -2 7 -7 16 -10 8 -3 12 -2 9 4 -6 10 -25 14 -25 6z"/>
 <path d="M890 386 c0 -2 7 -7 16 -10 8 -3 12 -2 9 4 -6 10 -25 14 -25 6z"/>
 <path d="M998 353 c7 -3 16 -2 19 1 4 3 -2 6 -13 5 -11 0 -14 -3 -6 -6z"/>
 <path d="M2528 350 c-208 -3 -380 -9 -384 -13 -4 -4 170 -7 387 -7 232 0 388 4 380 9 -11 7 -10 10 5 14 10 2 12 4 4 4 -8 0 -185 -3 -392 -7z"/>
 <path d="M1053 343 c4 -3 10 -3 14 0 3 4 0 7 -7 7 -7 0 -10 -3 -7 -7z"/>
 <path d="M1143 333 c9 -2 25 -2 35 0 9 3 1 5 -18 5 -19 0 -27 -2 -17 -5z"/>
 </g>
<g id="layer104" fill="#48b4d1" stroke="none">
 <path d="M1118 3465 c-2 -3 -31 -7 -63 -10 -65 -5 -165 -34 -165 -47 0 -5 -4 -7 -10 -3 -15 9 -108 -43 -115 -65 -3 -11 -11 -20 -17 -20 -6 0 -5 7 3 17 8 9 -3 4 -23 -11 -21 -16 -35 -32 -32 -37 3 -5 2 -8 -3 -7 -11 4 -73 -56 -73 -71 0 -7 -4 -10 -8 -7 -10 6 -68 -83 -64 -96 1 -5 -5 -16 -13 -25 -9 -8 -14 -22 -11 -30 3 -8 1 -11 -4 -8 -9 5 -12 -8 -9 -31 0 -4 -4 -10 -9 -13 -5 -3 -17 -38 -26 -78 -19 -85 -19 -86 -6 -78 6 3 10 -3 10 -15 0 -12 -5 -18 -10 -15 -10 6 -3 -224 7 -235 3 -3 4 38 3 90 -2 116 -1 132 11 100 7 -22 8 -20 5 10 -4 35 -4 36 30 32 30 -4 34 -8 34 -33 0 -26 4 -29 30 -29 25 0 30 -4 30 -25 0 -21 5 -25 30 -25 27 0 30 -3 30 -30 0 -27 3 -30 30 -30 27 0 30 -3 30 -30 0 -27 3 -30 30 -30 27 0 30 -3 30 -30 0 -25 4 -30 25 -30 21 0 25 -5 25 -30 0 -27 3 -30 30 -30 27 0 30 -3 30 -30 0 -27 3 -30 30 -30 27 0 30 -3 30 -30 0 -27 3 -30 30 -30 27 0 30 -3 30 -30 0 -27 3 -30 30 -30 25 0 30 -4 30 -25 0 -21 5 -25 30 -25 27 0 30 -3 30 -30 0 -27 3 -30 30 -30 27 0 30 -3 30 -30 0 -27 3 -30 30 -30 27 0 30 -3 30 -30 0 -25 4 -30 25 -30 24 0 25 -3 25 -55 0 -30 0 -58 -1 -62 0 -5 -11 -7 -24 -6 -13 1 -26 -5 -29 -13 -4 -9 -2 -12 5 -8 10 6 28 -11 29 -26 0 -3 -13 -13 -29 -23 -27 -16 -29 -16 -35 0 -6 15 -8 15 -16 3 -6 -8 -10 -19 -10 -25 0 -5 4 -4 9 4 5 8 11 9 15 3 7 -12 -44 -48 -63 -44 -7 2 -10 -1 -7 -7 10 -16 -40 -44 -66 -36 -18 5 -20 4 -8 -4 13 -10 13 -12 0 -21 -8 -5 -20 -8 -27 -5 -7 2 -10 -2 -6 -11 3 -7 1 -14 -5 -14 -5 0 -12 -9 -15 -20 -4 -16 1 -13 26 11 18 17 83 67 145 111 62 44 111 82 108 86 -8 7 13 32 27 32 6 0 2 -7 -9 -15 -10 -8 -16 -15 -11 -15 11 0 177 142 177 152 0 4 7 8 15 8 8 0 14 6 12 13 -1 6 3 11 9 10 16 -3 225 212 217 222 -5 4 -3 5 3 2 12 -7 58 36 49 45 -4 3 26 34 64 69 39 35 71 67 71 72 0 5 -7 4 -15 -3 -18 -15 -20 -3 -2 13 18 17 40 20 31 5 -9 -17 -1 -9 77 82 91 105 110 131 102 143 -3 5 -1 7 4 4 6 -4 27 13 47 37 36 44 48 74 24 60 -9 -5 -9 -2 1 9 15 18 26 23 16 7 -3 -5 -2 -10 4 -10 12 0 77 91 73 103 -1 5 2 6 7 3 5 -4 12 -2 16 4 8 14 28 13 49 -3 14 -10 18 -31 19 -114 2 -56 0 -100 -4 -97 -9 5 -22 -212 -14 -226 3 -5 1 -10 -6 -10 -8 0 -10 -18 -6 -60 2 -33 1 -60 -4 -60 -5 0 -9 -9 -9 -21 0 -11 5 -17 10 -14 12 8 13 -7 1 -20 -5 -6 -11 -30 -14 -54 -5 -37 -2 -47 18 -67 21 -21 43 -29 68 -25 4 0 7 -4 7 -10 0 -6 7 -8 16 -5 8 3 12 2 9 -4 -6 -9 10 -14 42 -13 7 1 10 -4 6 -10 -4 -6 0 -8 10 -4 10 3 17 3 17 -1 0 -4 13 -16 30 -25 25 -15 29 -22 23 -49 -5 -24 -3 -29 7 -23 10 6 12 4 7 -9 -4 -10 -1 -24 8 -32 8 -9 15 -21 15 -27 0 -7 -4 -6 -10 3 -8 11 -9 7 -4 -15 11 -56 15 -65 26 -59 10 7 28 -13 28 -31 0 -5 -4 -4 -9 4 -5 7 -11 9 -14 5 -8 -14 13 -127 28 -151 8 -12 12 -30 8 -39 -4 -10 -2 -15 3 -12 12 8 10 -90 -2 -102 -5 -5 -36 0 -78 15 -39 14 -72 23 -74 20 -2 -2 -11 3 -19 11 -9 8 -22 13 -29 10 -8 -3 -14 -2 -14 2 0 9 -145 65 -168 65 -10 0 -19 3 -22 7 -8 12 -131 60 -125 49 10 -14 -2 -11 -20 7 -8 9 -26 17 -39 18 -13 0 -22 4 -20 7 2 3 -12 11 -31 17 -19 5 -35 6 -35 1 0 -4 -7 -6 -15 -3 -8 4 -15 1 -15 -7 0 -7 -3 -9 -6 -6 -4 4 -2 13 5 21 16 20 -9 28 -40 12 -33 -16 -37 -59 -7 -80 14 -10 26 -12 32 -6 6 6 19 10 31 9 17 -1 16 -2 -5 -9 -24 -7 -22 -8 23 -29 27 -11 61 -24 75 -28 14 -3 37 -12 51 -19 13 -7 28 -11 33 -8 4 3 8 0 8 -6 0 -7 7 -10 15 -6 8 3 15 2 15 -3 0 -11 74 -41 100 -41 11 0 20 -4 20 -10 0 -5 7 -7 15 -4 8 4 15 2 15 -4 0 -11 125 -62 153 -62 10 0 25 -7 34 -16 9 -8 22 -13 29 -10 8 3 14 1 14 -3 0 -9 54 -34 77 -35 6 -1 15 -5 19 -9 4 -4 18 -7 31 -7 15 0 22 -4 18 -11 -4 -6 -1 -10 6 -8 26 3 37 -1 36 -13 -1 -32 4 -49 12 -44 11 7 22 -20 15 -38 -3 -7 1 -20 9 -27 7 -8 14 -17 14 -22 6 -38 16 -66 24 -62 5 4 6 0 3 -8 -3 -8 2 -22 12 -31 9 -9 14 -19 11 -22 -7 -7 23 -94 31 -94 4 0 8 -12 9 -26 0 -15 7 -30 15 -35 7 -5 10 -9 6 -9 -14 0 24 -90 38 -90 8 0 14 -4 14 -10 0 -5 -7 -10 -15 -10 -8 0 -15 -5 -15 -10 0 -6 -11 -15 -24 -21 -18 -9 -32 -7 -66 11 -36 18 -42 19 -37 5 4 -9 3 -14 -3 -10 -6 3 -10 13 -10 20 0 16 -54 48 -64 38 -3 -4 -6 -1 -6 6 0 13 -80 52 -92 45 -4 -3 -8 -1 -8 5 0 13 -75 52 -84 44 -3 -4 -6 -1 -6 6 0 21 -43 30 -63 13 -9 -8 -20 -12 -24 -9 -3 4 0 7 7 7 9 0 7 5 -6 15 -10 8 -14 15 -9 15 6 0 16 -5 23 -12 9 -9 12 -9 12 -1 0 11 -25 24 -44 22 -5 0 -12 4 -15 9 -12 19 -90 52 -107 45 -11 -4 -15 -2 -11 4 8 12 -40 36 -55 27 -6 -4 -8 -3 -5 3 8 12 -120 66 -135 57 -7 -4 -8 -2 -4 4 4 7 5 12 3 12 -3 0 -31 12 -63 26 -50 22 -56 23 -42 7 10 -11 16 -28 14 -39 -4 -21 -5 -21 83 -26 29 -2 46 -8 48 -18 4 -13 3 -13 -6 0 -8 12 -11 12 -17 -3 -9 -26 1 -31 64 -37 53 -5 57 -7 60 -33 3 -21 9 -27 28 -27 20 0 24 -5 24 -30 0 -27 3 -30 30 -30 27 0 30 -3 30 -30 0 -27 3 -30 30 -30 27 0 30 -3 30 -30 0 -27 3 -30 30 -30 27 0 30 -3 30 -30 0 -27 3 -30 30 -30 25 0 30 -4 30 -25 0 -21 5 -25 30 -25 27 0 30 -3 30 -30 0 -25 4 -30 25 -30 21 0 25 -5 25 -30 0 -27 3 -30 30 -30 27 0 30 -3 30 -30 0 -25 4 -30 25 -30 21 0 25 -5 25 -30 0 -27 3 -30 30 -30 27 0 30 -3 30 -30 0 -27 3 -30 30 -30 27 0 30 -3 30 -30 0 -27 3 -30 30 -30 25 0 30 -4 30 -25 0 -14 6 -25 13 -26 6 -1 1 -5 -13 -10 -17 -6 -3 -7 40 -3 36 3 70 10 77 16 7 6 13 7 13 3 0 -4 6 -3 13 2 6 6 20 10 29 10 21 0 98 33 98 43 0 4 6 7 14 7 24 0 96 57 97 78 0 11 3 15 6 7 4 -10 8 -10 19 -1 8 6 11 16 7 22 -3 5 -1 7 5 3 15 -9 106 100 96 116 -4 7 -4 10 1 6 11 -10 38 29 30 42 -3 6 -1 10 5 10 6 0 8 5 5 10 -3 6 -1 10 5 10 6 0 8 5 5 10 -3 6 -1 10 5 10 7 0 10 7 6 15 -6 18 3 47 13 40 10 -6 32 91 25 109 -3 8 -1 17 5 20 7 5 11 306 11 964 0 1041 1 1011 -57 1152 -38 92 -84 160 -158 229 -75 70 -132 105 -224 139 -139 51 -168 52 -1132 52 -493 0 -898 -2 -901 -5z m-34 -50 c3 -8 1 -15 -3 -15 -5 0 -11 7 -15 15 -3 8 -1 15 3 15 5 0 11 -7 15 -15z m-354 -119 c0 -3 -5 -8 -12 -12 -7 -4 -8 -3 -4 4 7 12 16 16 16 8z m-231 -446 c0 -10 -3 -8 -9 5 -12 27 -12 43 0 25 5 -8 9 -22 9 -30z m1918 -112 c-3 -8 -6 -5 -6 6 -1 11 2 17 5 13 3 -3 4 -12 1 -19z m-302 -9 c11 -16 1 -19 -13 -3 -7 8 -8 14 -3 14 5 0 13 -5 16 -11z m5 -33 c0 -3 -5 -8 -12 -12 -7 -4 -8 -3 -4 4 7 12 16 16 16 8z m-63 -38 c-3 -8 -6 -5 -6 6 -1 11 2 17 5 13 3 -3 4 -12 1 -19z m33 -2 c0 -2 -8 -10 -17 -17 -16 -13 -17 -12 -4 4 13 16 21 21 21 13z m287 -223 c-4 -3 -7 0 -7 7 0 7 3 10 7 7 3 -4 3 -10 0 -14z m-587 -107 c0 -3 -5 -8 -12 -12 -7 -4 -8 -3 -4 4 7 12 16 16 16 8z m587 -113 c-4 -3 -7 0 -7 7 0 7 3 10 7 7 3 -4 3 -10 0 -14z m58 -23 c3 -5 4 -10 1 -10 -3 0 -8 5 -11 10 -3 6 -4 10 -1 10 3 0 8 -4 11 -10z m-28 -7 c-4 -3 -10 -3 -14 0 -3 4 0 7 7 7 7 0 10 -3 7 -7z m-829 -38 c-6 -14 -13 -23 -15 -21 -5 5 15 46 22 46 3 0 -1 -11 -7 -25z m959 8 c-4 -3 -10 -3 -14 0 -3 4 0 7 7 7 7 0 10 -3 7 -7z m-1177 -199 c0 -31 -2 -35 -15 -24 -8 7 -15 23 -15 36 0 15 6 24 15 24 11 0 15 -11 15 -36z m42 29 c-6 -2 -9 -10 -6 -15 4 -7 2 -8 -5 -4 -13 9 -5 26 12 25 9 0 8 -2 -1 -6z m1316 -278 c-3 -3 -9 2 -12 12 -6 14 -5 15 5 6 7 -7 10 -15 7 -18z m-618 -15 c0 -5 -5 -10 -11 -10 -5 0 -7 5 -4 10 3 6 8 10 11 10 2 0 4 -4 4 -10z m355 -80 c3 -5 4 -10 1 -10 -3 0 -8 5 -11 10 -3 6 -4 10 -1 10 3 0 8 -4 11 -10z m265 -24 c0 -3 -5 -8 -12 -12 -7 -4 -8 -3 -4 4 7 12 16 16 16 8z m5 -46 c-3 -5 -12 -10 -18 -10 -7 0 -6 4 3 10 19 12 23 12 15 0z m-626 -342 c10 -18 11 -20 0 -10 -7 6 -24 12 -38 13 -24 0 -24 1 -6 9 29 12 29 12 44 -12z m120 -65 c2 -2 -10 -3 -28 -3 -27 0 -30 2 -19 14 10 11 17 11 28 3 8 -6 17 -13 19 -14z m28 10 c-4 -3 -10 -3 -14 0 -3 4 0 7 7 7 7 0 10 -3 7 -7z m118 -63 c-3 -5 -12 -10 -18 -10 -7 0 -6 4 3 10 19 12 23 12 15 0z m1192 -37 c-4 -3 -7 0 -7 7 0 7 3 10 7 7 3 -4 3 -10 0 -14z m-960 -70 c-4 -3 -10 -3 -14 0 -3 4 0 7 7 7 7 0 10 -3 7 -7z m0 -30 c-4 -3 -10 -3 -14 0 -3 4 0 7 7 7 7 0 10 -3 7 -7z m130 -50 c-4 -3 -10 -3 -14 0 -3 4 0 7 7 7 7 0 10 -3 7 -7z m690 -310 c-4 -3 -10 -3 -14 0 -3 4 0 7 7 7 7 0 10 -3 7 -7z m-237 -177 c0 -3 -5 -8 -12 -12 -7 -4 -8 -3 -4 4 7 12 16 16 16 8z m-93 -12 c-3 -3 -12 -4 -19 -1 -8 3 -5 6 6 6 11 1 17 -2 13 -5z m60 0 c-3 -3 -12 -4 -19 -1 -8 3 -5 6 6 6 11 1 17 -2 13 -5z"/>
 <path d="M1859 2393 c-13 -16 -12 -17 4 -4 9 7 17 15 17 17 0 8 -8 3 -21 -13z"/>
 <path d="M1824 2358 c-4 -7 -3 -8 4 -4 12 7 16 16 8 16 -3 0 -8 -5 -12 -12z"/>
 <path d="M472 2315 c0 -16 2 -22 5 -12 2 9 2 23 0 30 -3 6 -5 -1 -5 -18z"/>
 <path d="M1256 1874 c-5 -14 -4 -15 9 -4 17 14 19 20 6 20 -5 0 -12 -7 -15 -16z"/>
 <path d="M1035 1640 c-3 -5 4 -14 16 -20 27 -15 30 -10 8 12 -10 10 -21 13 -24 8z"/>
 <path d="M1100 1602 c8 -5 26 -13 40 -16 17 -5 20 -4 10 2 -8 5 -26 13 -40 16 -17 5 -20 4 -10 -2z"/>
 <path d="M1190 1566 c14 -8 27 -12 29 -10 6 6 -1 11 -29 18 l-25 7 25 -15z"/>
 <path d="M1265 1538 c11 -7 29 -13 40 -15 16 -2 17 -1 5 6 -8 5 -26 12 -40 15 -23 6 -24 6 -5 -6z"/>
 <path d="M1193 1533 c4 -3 10 -3 14 0 3 4 0 7 -7 7 -7 0 -10 -3 -7 -7z"/>
 <path d="M1344 1505 c11 -8 29 -15 40 -15 18 0 18 -2 6 -10 -11 -8 -8 -9 13 -4 15 3 27 2 27 -4 0 -5 11 -9 25 -9 36 0 29 4 -56 32 -47 16 -67 19 -55 10z"/>
 <path d="M1323 1483 c4 -3 10 -3 14 0 3 4 0 7 -7 7 -7 0 -10 -3 -7 -7z"/>
 <path d="M1498 1452 c7 -5 10 -16 6 -28 -6 -18 -6 -18 10 1 16 20 16 20 33 -1 13 -15 25 -19 43 -15 21 6 17 9 -34 29 -60 23 -80 28 -58 14z"/>
 <path d="M1620 1400 c0 -5 5 -10 10 -10 6 0 10 5 10 10 0 6 -4 10 -10 10 -5 0 -10 -4 -10 -10z"/>
 <path d="M1663 1393 c4 -3 10 -3 14 0 3 4 0 7 -7 7 -7 0 -10 -3 -7 -7z"/>
 <path d="M1675 1373 l-20 -16 20 8 c11 4 29 7 40 7 16 -1 17 1 5 8 -20 13 -21 12 -45 -7z"/>
 <path d="M1625 1371 c-3 -5 -2 -12 3 -15 5 -3 9 1 9 9 0 17 -3 19 -12 6z"/>
 <path d="M1740 1360 c0 -5 5 -12 10 -15 6 -4 8 -12 4 -18 -3 -7 0 -5 8 4 8 10 20 14 32 9 19 -6 19 -7 -2 -12 -12 -4 -22 -11 -22 -17 0 -16 11 -13 39 8 l24 18 -47 16 c-25 9 -46 12 -46 7z"/>
 <path d="M1822 1315 c-17 -9 -20 -15 -12 -20 7 -4 15 -4 19 1 3 5 12 9 19 10 34 3 37 4 22 14 -18 12 -19 12 -48 -5z"/>
 <path d="M1926 1286 c6 -15 44 -29 44 -17 0 4 -11 13 -25 19 -19 9 -23 9 -19 -2z"/>
 <path d="M1910 1260 c0 -5 5 -10 11 -10 5 0 7 5 4 10 -3 6 -8 10 -11 10 -2 0 -4 -4 -4 -10z"/>
 <path d="M1984 1261 c4 -5 0 -12 -6 -14 -8 -3 -6 -6 5 -6 9 -1 17 6 17 14 0 8 -5 15 -11 15 -5 0 -8 -4 -5 -9z"/>
 <path d="M462 990 c0 -14 2 -19 5 -12 2 6 2 18 0 25 -3 6 -5 1 -5 -13z"/>
 <path d="M480 850 c0 -7 3 -10 7 -7 3 4 3 10 0 14 -4 3 -7 0 -7 -7z"/>
 <path d="M540 691 c0 -6 4 -13 10 -16 6 -3 7 1 4 9 -7 18 -14 21 -14 7z"/>
 <path d="M585 620 c3 -5 8 -10 11 -10 3 0 2 5 -1 10 -3 6 -8 10 -11 10 -3 0 -2 -4 1 -10z"/>
 <path d="M675 520 c3 -5 8 -10 11 -10 3 0 2 5 -1 10 -3 6 -8 10 -11 10 -3 0 -2 -4 1 -10z"/>
 <path d="M780 436 c0 -2 7 -7 16 -10 8 -3 12 -2 9 4 -6 10 -25 14 -25 6z"/>
 <path d="M890 386 c0 -2 7 -7 16 -10 8 -3 12 -2 9 4 -6 10 -25 14 -25 6z"/>
 <path d="M998 353 c7 -3 16 -2 19 1 4 3 -2 6 -13 5 -11 0 -14 -3 -6 -6z"/>
 <path d="M2528 350 c-208 -3 -380 -9 -384 -13 -4 -4 170 -7 387 -7 232 0 388 4 380 9 -11 7 -10 10 5 14 10 2 12 4 4 4 -8 0 -185 -3 -392 -7z"/>
 <path d="M1053 343 c4 -3 10 -3 14 0 3 4 0 7 -7 7 -7 0 -10 -3 -7 -7z"/>
 <path d="M1143 333 c9 -2 25 -2 35 0 9 3 1 5 -18 5 -19 0 -27 -2 -17 -5z"/>
 </g>
<g id="layer105" fill="#47abe5" stroke="none">
 <path d="M1144 3455 c9 -9 34 -15 65 -15 44 0 51 -3 51 -20 0 -15 7 -20 29 -20 25 0 30 -4 33 -27 2 -22 9 -29 30 -31 21 -3 27 -9 30 -30 2 -21 9 -28 31 -30 21 -3 27 -9 27 -28 0 -20 5 -24 30 -24 27 0 30 -3 30 -30 0 -27 3 -30 30 -30 27 0 30 -3 30 -30 0 -27 3 -30 30 -30 27 0 30 -3 30 -30 0 -27 3 -30 30 -30 27 0 30 -3 30 -30 0 -27 3 -30 30 -30 27 0 30 -3 30 -30 0 -25 4 -30 24 -30 19 0 25 -6 28 -27 2 -22 9 -29 30 -31 21 -3 27 -9 30 -30 2 -21 9 -28 30 -30 21 -3 27 -9 30 -30 2 -21 9 -28 31 -30 21 -3 27 -9 27 -28 0 -21 5 -24 35 -24 33 0 35 -2 29 -27 -3 -16 -9 -45 -11 -65 -3 -21 -9 -38 -14 -38 -5 0 -9 -6 -9 -12 1 -14 25 12 141 154 73 90 97 130 67 112 -9 -5 -9 -2 1 9 15 18 26 23 16 7 -3 -5 -2 -10 4 -10 12 0 77 91 73 103 -1 5 2 6 7 3 5 -4 12 -2 16 4 8 14 28 13 49 -3 14 -10 18 -31 19 -114 2 -56 0 -100 -4 -97 -9 5 -22 -212 -14 -226 3 -5 1 -10 -5 -10 -13 0 -11 -98 2 -106 4 -3 8 -13 7 -22 0 -11 -3 -12 -6 -4 -8 19 -23 14 -23 -9 0 -11 4 -17 10 -14 6 3 10 -2 10 -12 0 -26 19 -43 47 -43 18 0 23 -6 23 -24 0 -19 -7 -26 -30 -31 -16 -4 -30 -11 -30 -16 0 -11 54 0 58 13 2 4 17 8 33 8 25 0 29 -4 29 -29 0 -31 28 -50 52 -35 9 6 9 3 -1 -9 -11 -14 -11 -17 0 -17 11 0 11 -2 -1 -10 -13 -8 -12 -11 5 -24 15 -11 22 -11 28 -3 5 7 7 3 4 -11 -3 -12 -1 -19 4 -16 6 3 7 -5 3 -20 -9 -37 4 -32 16 7 l10 32 -4 -40 c-3 -22 -2 -32 0 -22 3 10 15 17 30 17 20 0 24 -5 24 -30 0 -27 3 -30 30 -30 27 0 30 -3 30 -30 0 -25 4 -30 24 -30 19 0 25 -6 28 -27 2 -22 9 -29 30 -31 21 -3 27 -9 30 -30 2 -21 9 -28 31 -30 21 -3 27 -9 27 -28 0 -20 5 -24 30 -24 27 0 30 -3 30 -30 0 -27 3 -30 30 -30 27 0 30 -3 30 -30 0 -27 3 -30 30 -30 27 0 30 -3 30 -30 0 -27 3 -30 30 -30 27 0 30 -3 30 -30 0 -27 3 -30 30 -30 27 0 30 -3 30 -30 0 -25 4 -30 24 -30 19 0 25 -6 28 -27 2 -22 9 -29 30 -31 19 -2 28 -10 30 -25 2 -16 11 -23 31 -25 21 -3 27 -9 27 -28 0 -20 5 -24 30 -24 27 0 30 -3 30 -30 0 -27 3 -30 30 -30 27 0 30 -3 30 -30 0 -27 3 -30 30 -30 30 0 30 0 31 -57 3 -161 13 -217 34 -182 5 7 4 10 -2 6 -15 -10 -18 31 -19 253 0 193 0 193 3 27 2 -99 7 -167 13 -167 7 0 10 320 10 898 0 975 1 952 -57 1092 -38 92 -84 160 -158 229 -75 70 -132 105 -224 139 -139 51 -168 52 -1129 52 -794 0 -892 -2 -878 -15z m1141 -524 c3 -5 2 -12 -3 -15 -5 -3 -9 1 -9 9 0 17 3 19 12 6z m-110 -141 c3 -5 4 -10 1 -10 -3 0 -8 5 -11 10 -3 6 -4 10 -1 10 3 0 8 -4 11 -10z m-35 -62 c0 -5 -4 -6 -10 -3 -5 3 -10 1 -10 -5 0 -7 -6 -5 -15 4 -20 20 -19 32 2 15 15 -12 16 -12 10 5 -6 16 -5 17 8 6 8 -7 15 -17 15 -22z m277 10 c-3 -8 -6 -5 -6 6 -1 11 2 17 5 13 3 -3 4 -12 1 -19z m-297 -42 c0 -3 -5 -8 -12 -12 -7 -4 -8 -3 -4 4 7 12 16 16 16 8z m-30 -16 c0 -5 -7 -10 -15 -10 -8 0 -15 -7 -15 -16 0 -14 2 -15 18 -3 15 13 16 12 3 -3 -7 -10 -20 -18 -27 -18 -8 0 -14 -5 -14 -12 0 -6 -2 -9 -5 -6 -10 10 17 67 33 71 9 3 18 5 20 6 1 0 2 -3 2 -9z m287 -247 c-4 -3 -7 0 -7 7 0 7 3 10 7 7 3 -4 3 -10 0 -14z m240 -330 c-4 -3 -10 -3 -14 0 -3 4 0 7 7 7 7 0 10 -3 7 -7z"/>
 <path d="M1025 3454 c-82 -18 -106 -27 -90 -37 12 -6 20 -6 24 1 4 6 26 14 49 18 23 4 45 11 48 15 5 9 3 10 -31 3z"/>
 <path d="M1030 3414 l-25 -14 30 6 c35 8 39 10 28 17 -5 3 -19 -1 -33 -9z"/>
 <path d="M1080 3420 c0 -7 3 -10 7 -7 3 4 3 10 0 14 -4 3 -7 0 -7 -7z"/>
 <path d="M893 3413 c4 -3 10 -3 14 0 3 4 0 7 -7 7 -7 0 -10 -3 -7 -7z"/>
 <path d="M820 3384 c-25 -13 -34 -22 -21 -18 28 7 92 44 76 44 -5 -1 -30 -12 -55 -26z"/>
 <path d="M734 3328 c-4 -7 -3 -8 4 -4 7 4 12 9 12 12 0 8 -9 4 -16 -8z"/>
 <path d="M692 3297 c-12 -13 -22 -27 -22 -33 0 -5 5 -1 11 9 6 9 14 15 19 12 4 -3 11 2 14 11 10 26 1 26 -22 1z"/>
 <path d="M626 3232 c-3 -5 1 -9 9 -9 8 0 12 4 9 9 -3 4 -7 8 -9 8 -2 0 -6 -4 -9 -8z"/>
 <path d="M597 3196 c-4 -10 -1 -13 8 -9 8 3 12 9 9 14 -7 12 -11 11 -17 -5z"/>
 <path d="M580 3140 c0 -7 3 -10 7 -7 3 4 3 10 0 14 -4 3 -7 0 -7 -7z"/>
 <path d="M540 3070 c0 -7 3 -10 7 -7 3 4 3 10 0 14 -4 3 -7 0 -7 -7z"/>
 <path d="M520 3031 c0 -6 4 -13 10 -16 6 -3 7 1 4 9 -7 18 -14 21 -14 7z"/>
 <path d="M494 2988 c-4 -7 -3 -8 4 -4 7 4 12 9 12 12 0 8 -9 4 -16 -8z"/>
 <path d="M469 2883 c0 -5 -2 -16 -4 -26 -2 -11 -1 -16 3 -13 8 8 14 46 7 46 -3 0 -5 -3 -6 -7z"/>
 <path d="M460 2800 c0 -7 3 -10 7 -7 3 4 3 10 0 14 -4 3 -7 0 -7 -7z"/>
 <path d="M480 2800 c0 -7 3 -10 7 -7 3 4 3 10 0 14 -4 3 -7 0 -7 -7z"/>
 <path d="M461 2754 c0 -11 3 -14 6 -6 3 7 2 16 -1 19 -3 4 -6 -2 -5 -13z"/>
 <path d="M473 2640 c0 -36 2 -50 4 -32 2 17 2 47 0 65 -2 17 -4 3 -4 -33z"/>
 <path d="M1970 2551 c0 -6 4 -13 10 -16 6 -3 7 1 4 9 -7 18 -14 21 -14 7z"/>
 <path d="M1940 2516 c0 -2 7 -7 16 -10 8 -3 12 -2 9 4 -6 10 -25 14 -25 6z"/>
 <path d="M1907 2455 c-15 -14 -24 -25 -19 -25 5 0 19 11 32 25 30 32 23 32 -13 0z"/>
 <path d="M472 2315 c0 -16 2 -22 5 -12 2 9 2 23 0 30 -3 6 -5 -1 -5 -18z"/>
 <path d="M1789 2323 c-13 -16 -12 -17 4 -4 9 7 17 15 17 17 0 8 -8 3 -21 -13z"/>
 <path d="M2350 2289 c0 -13 7 -33 15 -43 14 -19 15 -18 15 11 0 17 -7 36 -15 43 -13 10 -15 9 -15 -11z"/>
 <path d="M1734 2268 c-4 -7 -3 -8 4 -4 12 7 16 16 8 16 -3 0 -8 -5 -12 -12z"/>
 <path d="M1703 2253 c4 -3 1 -13 -6 -22 -11 -14 -10 -14 5 -2 16 12 16 31 1 31 -4 0 -3 -3 0 -7z"/>
 <path d="M2340 2235 c0 -21 31 -53 62 -64 17 -6 29 -8 25 -5 -4 4 -1 14 6 23 10 14 10 14 -5 3 -17 -13 -58 -8 -58 7 0 12 -29 47 -30 36z"/>
 <path d="M1645 2190 c3 -5 8 -10 11 -10 3 0 2 5 -1 10 -3 6 -8 10 -11 10 -3 0 -2 -4 1 -10z"/>
 <path d="M1624 2158 c-4 -7 -3 -8 4 -4 12 7 16 16 8 16 -3 0 -8 -5 -12 -12z"/>
 <path d="M2475 2160 c-3 -5 -13 -7 -23 -4 -9 2 3 -5 27 -16 24 -11 46 -18 49 -15 3 3 0 5 -7 5 -7 0 -9 5 -5 11 3 6 0 15 -7 20 -18 11 -26 11 -34 -1z m22 -7 c-4 -3 -10 -3 -14 0 -3 4 0 7 7 7 7 0 10 -3 7 -7z"/>
 <path d="M1505 2070 c-3 -6 1 -7 9 -4 18 7 21 14 7 14 -6 0 -13 -4 -16 -10z"/>
 <path d="M2600 2000 c0 -7 3 -10 7 -7 3 4 3 10 0 14 -4 3 -7 0 -7 -7z"/>
 <path d="M1434 1988 c-4 -7 -3 -8 4 -4 12 7 16 16 8 16 -3 0 -8 -5 -12 -12z"/>
 <path d="M2616 1974 c-4 -9 -4 -19 -1 -22 3 -3 5 0 5 6 0 7 7 9 18 5 15 -6 15 -5 3 10 -17 21 -17 21 -25 1z"/>
 <path d="M2653 1945 c-3 -9 -3 -29 0 -45 4 -16 2 -32 -3 -35 -14 -9 -12 -25 3 -25 8 0 12 18 12 60 0 63 -2 70 -12 45z"/>
 <path d="M2620 1925 c0 -11 5 -27 10 -35 8 -12 10 -12 10 5 0 11 -5 27 -10 35 -8 12 -10 12 -10 -5z"/>
 <path d="M1264 1908 c-4 -7 -3 -8 4 -4 7 4 12 9 12 12 0 8 -9 4 -16 -8z"/>
 <path d="M1300 1900 c-12 -7 -10 -9 7 -7 12 0 19 5 17 9 -6 10 -6 10 -24 -2z"/>
 <path d="M1225 1850 c3 -5 8 -10 11 -10 3 0 2 5 -1 10 -3 6 -8 10 -11 10 -3 0 -2 -4 1 -10z"/>
 <path d="M2651 1784 c0 -11 3 -14 6 -6 3 7 2 16 -1 19 -3 4 -6 -2 -5 -13z"/>
 <path d="M1159 1773 c-13 -17 -13 -17 6 -3 11 8 22 16 24 17 2 2 0 3 -6 3 -6 0 -17 -8 -24 -17z"/>
 <path d="M2040 1784 c0 -7 52 -25 57 -20 2 2 -10 8 -26 14 -17 6 -31 9 -31 6z"/>
 <path d="M1964 1758 c-4 -7 -3 -8 4 -4 7 4 12 9 12 12 0 8 -9 4 -16 -8z"/>
 <path d="M2661 1753 c-1 -6 2 -19 5 -27 6 -15 8 -15 20 1 16 22 18 33 4 33 -5 0 -10 -8 -11 -17 0 -15 -2 -15 -9 2 -5 11 -9 15 -9 8z"/>
 <path d="M2706 1724 c-4 -14 -5 -28 -3 -31 3 -2 8 8 11 23 4 14 5 28 3 31 -3 2 -8 -8 -11 -23z"/>
 <path d="M2133 1713 c4 -3 10 -3 14 0 3 4 0 7 -7 7 -7 0 -10 -3 -7 -7z"/>
 <path d="M2257 1699 c7 -7 15 -10 18 -7 3 3 -2 9 -12 12 -14 6 -15 5 -6 -5z"/>
 <path d="M2338 1668 c5 -5 16 -8 23 -6 8 3 3 7 -10 11 -17 4 -21 3 -13 -5z"/>
 <path d="M2127 1659 c7 -7 15 -10 18 -7 3 3 -2 9 -12 12 -14 6 -15 5 -6 -5z"/>
 <path d="M2687 1649 c4 -13 8 -18 11 -10 2 7 -1 18 -6 23 -8 8 -9 4 -5 -13z"/>
 <path d="M2185 1630 c-3 -5 -2 -10 4 -10 5 0 13 5 16 10 3 6 2 10 -4 10 -5 0 -13 -4 -16 -10z"/>
 <path d="M2712 1610 c0 -14 2 -19 5 -12 2 6 2 18 0 25 -3 6 -5 1 -5 -13z"/>
 <path d="M1063 1613 c4 -3 10 -3 14 0 3 4 0 7 -7 7 -7 0 -10 -3 -7 -7z"/>
 <path d="M2490 1610 c8 -5 20 -10 25 -10 6 0 3 5 -5 10 -8 5 -19 10 -25 10 -5 0 -3 -5 5 -10z"/>
 <path d="M2230 1606 c0 -2 7 -7 16 -10 8 -3 12 -2 9 4 -6 10 -25 14 -25 6z"/>
 <path d="M2278 1603 c7 -3 16 -2 19 1 4 3 -2 6 -13 5 -11 0 -14 -3 -6 -6z"/>
 <path d="M1137 1589 c7 -7 15 -10 18 -7 3 3 -2 9 -12 12 -14 6 -15 5 -6 -5z"/>
 <path d="M2533 1593 c4 -3 10 -3 14 0 3 4 0 7 -7 7 -7 0 -10 -3 -7 -7z"/>
 <path d="M2690 1580 c0 -7 3 -10 7 -7 3 4 3 10 0 14 -4 3 -7 0 -7 -7z"/>
 <path d="M1173 1573 c4 -3 10 -3 14 0 3 4 0 7 -7 7 -7 0 -10 -3 -7 -7z"/>
 <path d="M2655 1560 c-16 -7 -17 -9 -3 -9 9 -1 20 4 23 9 7 11 7 11 -20 0z"/>
 <path d="M2360 1556 c0 -2 7 -7 16 -10 8 -3 12 -2 9 4 -6 10 -25 14 -25 6z"/>
 <path d="M1275 1530 c4 -6 11 -8 16 -5 14 9 11 15 -7 15 -8 0 -12 -5 -9 -10z"/>
 <path d="M2605 1530 c-3 -5 -1 -10 4 -10 6 0 11 5 11 10 0 6 -2 10 -4 10 -3 0 -8 -4 -11 -10z"/>
 <path d="M2460 1515 c0 -7 30 -13 34 -7 3 4 -4 9 -15 9 -10 1 -19 0 -19 -2z"/>
 <path d="M2546 1491 c-3 -5 1 -11 9 -14 9 -4 12 -1 8 9 -6 16 -10 17 -17 5z"/>
 <path d="M1435 1470 c3 -5 8 -10 11 -10 3 0 2 5 -1 10 -3 6 -8 10 -11 10 -3 0 -2 -4 1 -10z"/>
 <path d="M1502 1446 c7 -8 17 -12 22 -9 4 3 2 9 -5 14 -22 13 -31 11 -17 -5z"/>
 <path d="M2743 1453 c4 -3 10 -3 14 0 3 4 0 7 -7 7 -7 0 -10 -3 -7 -7z"/>
 <path d="M2653 1433 c4 -3 10 -3 14 0 3 4 0 7 -7 7 -7 0 -10 -3 -7 -7z"/>
 <path d="M1565 1410 c-3 -6 1 -7 9 -4 18 7 21 14 7 14 -6 0 -13 -4 -16 -10z"/>
 <path d="M2733 1403 c4 -3 10 -3 14 0 3 4 0 7 -7 7 -7 0 -10 -3 -7 -7z"/>
 <path d="M1690 1382 c0 -4 10 -9 22 -9 18 -2 20 0 8 7 -18 12 -30 13 -30 2z"/>
 <path d="M1748 1347 c7 -8 8 -18 4 -22 -4 -5 -1 -5 6 -1 17 10 15 23 -4 30 -13 5 -14 4 -6 -7z"/>
 <path d="M2794 1328 c-4 -7 -3 -8 4 -4 12 7 16 16 8 16 -3 0 -8 -5 -12 -12z"/>
 <path d="M1776 1323 c-13 -13 -5 -20 24 -21 16 0 32 3 35 8 3 4 15 6 28 3 20 -4 20 -3 4 7 -14 9 -22 9 -33 -1 -12 -10 -20 -10 -34 -1 -10 6 -21 8 -24 5z"/>
 <path d="M2800 1304 c0 -17 17 -36 24 -26 3 5 -1 15 -9 22 -8 7 -15 9 -15 4z"/>
 <path d="M2050 1230 c-9 -6 -10 -10 -3 -10 6 0 15 5 18 10 8 12 4 12 -15 0z"/>
 <path d="M2035 1200 c3 -5 8 -10 11 -10 3 0 2 5 -1 10 -3 6 -8 10 -11 10 -3 0 -2 -4 1 -10z"/>
 <path d="M2102 1194 c10 -10 20 -15 24 -12 3 4 -5 12 -18 18 -22 12 -22 12 -6 -6z"/>
 <path d="M2063 1183 c4 -3 10 -3 14 0 3 4 0 7 -7 7 -7 0 -10 -3 -7 -7z"/>
 <path d="M2874 1178 c-4 -7 -3 -8 4 -4 7 4 12 9 12 12 0 8 -9 4 -16 -8z"/>
 <path d="M2166 1155 c-3 -8 -1 -15 4 -15 6 0 10 7 10 15 0 8 -2 15 -4 15 -2 0 -6 -7 -10 -15z"/>
 <path d="M2240 1156 c0 -3 9 -10 20 -16 11 -6 20 -8 20 -6 0 3 -9 10 -20 16 -11 6 -20 8 -20 6z"/>
 <path d="M2323 1093 c4 -3 10 -3 14 0 3 4 0 7 -7 7 -7 0 -10 -3 -7 -7z"/>
 <path d="M2368 1063 c7 -3 16 -2 19 1 4 3 -2 6 -13 5 -11 0 -14 -3 -6 -6z"/>
 <path d="M2896 1057 c3 -10 9 -15 12 -12 3 3 0 11 -7 18 -10 9 -11 8 -5 -6z"/>
 <path d="M3582 1025 c0 -16 2 -22 5 -12 2 9 2 23 0 30 -3 6 -5 -1 -5 -18z"/>
 <path d="M2445 1029 c-4 -6 -5 -12 -2 -15 2 -3 7 2 10 11 7 17 1 20 -8 4z"/>
 <path d="M2910 1020 c0 -7 3 -10 7 -7 3 4 3 10 0 14 -4 3 -7 0 -7 -7z"/>
 <path d="M2545 1010 c3 -5 8 -10 11 -10 3 0 2 5 -1 10 -3 6 -8 10 -11 10 -3 0 -2 -4 1 -10z"/>
 <path d="M462 990 c0 -14 2 -19 5 -12 2 6 2 18 0 25 -3 6 -5 1 -5 -13z"/>
 <path d="M2930 1000 c0 -7 3 -10 7 -7 3 4 3 10 0 14 -4 3 -7 0 -7 -7z"/>
 <path d="M2946 927 c3 -10 9 -15 12 -12 3 3 0 11 -7 18 -10 9 -11 8 -5 -6z"/>
 <path d="M2680 919 c0 -4 14 -7 30 -7 35 1 33 8 -4 12 -14 2 -26 0 -26 -5z"/>
 <path d="M3561 878 c0 -28 2 -30 9 -13 12 28 12 45 0 45 -5 0 -10 -15 -9 -32z"/>
 <path d="M480 850 c0 -7 3 -10 7 -7 3 4 3 10 0 14 -4 3 -7 0 -7 -7z"/>
 <path d="M3510 820 c0 -7 3 -10 7 -7 3 4 3 10 0 14 -4 3 -7 0 -7 -7z"/>
 <path d="M3540 821 c0 -6 5 -13 10 -16 6 -3 10 1 10 9 0 9 -4 16 -10 16 -5 0 -10 -4 -10 -9z"/>
 <path d="M3530 760 c0 -7 3 -10 7 -7 3 4 3 10 0 14 -4 3 -7 0 -7 -7z"/>
 <path d="M3510 740 c0 -5 5 -10 11 -10 5 0 7 5 4 10 -3 6 -8 10 -11 10 -2 0 -4 -4 -4 -10z"/>
 <path d="M540 691 c0 -6 4 -13 10 -16 6 -3 7 1 4 9 -7 18 -14 21 -14 7z"/>
 <path d="M3494 678 c-4 -7 -3 -8 4 -4 12 7 16 16 8 16 -3 0 -8 -5 -12 -12z"/>
 <path d="M585 620 c3 -5 8 -10 11 -10 3 0 2 5 -1 10 -3 6 -8 10 -11 10 -3 0 -2 -4 1 -10z"/>
 <path d="M3364 518 c-4 -7 -3 -8 4 -4 7 4 12 9 12 12 0 8 -9 4 -16 -8z"/>
 <path d="M780 436 c0 -2 7 -7 16 -10 8 -3 12 -2 9 4 -6 10 -25 14 -25 6z"/>
 <path d="M3165 401 c3 -5 -7 -11 -22 -13 -16 -2 -23 -6 -18 -10 6 -3 23 -1 40 6 25 10 26 13 12 19 -10 4 -16 3 -12 -2z"/>
 <path d="M890 386 c0 -2 7 -7 16 -10 8 -3 12 -2 9 4 -6 10 -25 14 -25 6z"/>
 <path d="M3060 386 c0 -2 7 -7 16 -10 8 -3 12 -2 9 4 -6 10 -25 14 -25 6z"/>
 <path d="M998 353 c7 -3 16 -2 19 1 4 3 -2 6 -13 5 -11 0 -14 -3 -6 -6z"/>
 <path d="M1053 343 c4 -3 10 -3 14 0 3 4 0 7 -7 7 -7 0 -10 -3 -7 -7z"/>
 <path d="M1143 333 c9 -2 25 -2 35 0 9 3 1 5 -18 5 -19 0 -27 -2 -17 -5z"/>
 <path d="M2313 333 c97 -2 257 -2 355 0 97 1 17 2 -178 2 -195 0 -275 -1 -177 -2z"/>
 <path d="M2903 333 c4 -3 10 -3 14 0 3 4 0 7 -7 7 -7 0 -10 -3 -7 -7z"/>
 </g>
<g id="layer106" fill="#52c5c4" stroke="none">
 <path d="M1144 3455 c9 -9 34 -15 65 -15 44 0 51 -3 51 -20 0 -15 7 -20 29 -20 25 0 30 -4 33 -27 2 -22 9 -29 30 -31 21 -3 27 -9 30 -30 2 -21 9 -28 31 -30 21 -3 27 -9 27 -28 0 -20 5 -24 30 -24 27 0 30 -3 30 -30 0 -27 3 -30 30 -30 27 0 30 -3 30 -30 0 -27 3 -30 30 -30 27 0 30 -3 30 -30 0 -27 3 -30 30 -30 27 0 30 -3 30 -30 0 -27 3 -30 30 -30 27 0 30 -3 30 -30 0 -25 4 -30 24 -30 19 0 25 -6 28 -27 2 -22 9 -29 30 -31 21 -3 27 -9 30 -30 2 -21 9 -28 30 -30 21 -3 27 -9 30 -30 2 -21 9 -28 31 -30 21 -3 27 -9 27 -28 0 -21 5 -24 35 -24 33 0 35 -2 29 -27 -3 -16 -9 -45 -11 -65 -3 -21 -9 -38 -14 -38 -5 0 -9 -6 -9 -12 1 -14 25 12 141 154 73 90 97 130 67 112 -9 -5 -9 -2 1 9 15 18 26 23 16 7 -3 -5 -2 -10 4 -10 12 0 77 91 73 103 -1 5 2 6 7 3 5 -4 12 -2 16 4 8 14 28 13 49 -3 14 -10 18 -31 19 -114 2 -56 0 -100 -4 -97 -9 5 -22 -212 -14 -226 3 -5 1 -10 -5 -10 -13 0 -11 -98 2 -106 4 -3 8 -13 7 -22 0 -11 -3 -12 -6 -4 -8 19 -23 14 -23 -9 0 -11 4 -17 10 -14 6 3 10 -2 10 -12 0 -26 19 -43 47 -43 18 0 23 -6 23 -24 0 -19 -7 -26 -30 -31 -16 -4 -30 -11 -30 -16 0 -11 54 0 58 13 2 4 17 8 33 8 25 0 29 -4 29 -29 0 -31 28 -50 52 -35 9 6 9 3 -1 -9 -11 -14 -11 -17 0 -17 11 0 11 -2 -1 -10 -13 -8 -12 -11 5 -24 15 -11 22 -11 28 -3 5 7 7 3 4 -11 -3 -12 -1 -19 4 -16 6 3 7 -5 3 -20 -9 -37 4 -32 16 7 l10 32 -4 -40 c-3 -22 -2 -32 0 -22 3 10 15 17 30 17 20 0 24 -5 24 -30 0 -27 3 -30 30 -30 27 0 30 -3 30 -30 0 -25 4 -30 24 -30 19 0 25 -6 28 -27 2 -22 9 -29 30 -31 21 -3 27 -9 30 -30 2 -21 9 -28 31 -30 21 -3 27 -9 27 -28 0 -20 5 -24 30 -24 27 0 30 -3 30 -30 0 -27 3 -30 30 -30 27 0 30 -3 30 -30 0 -27 3 -30 30 -30 27 0 30 -3 30 -30 0 -27 3 -30 30 -30 27 0 30 -3 30 -30 0 -27 3 -30 30 -30 27 0 30 -3 30 -30 0 -25 4 -30 24 -30 19 0 25 -6 28 -27 2 -22 9 -29 30 -31 19 -2 28 -10 30 -25 2 -16 11 -23 31 -25 21 -3 27 -9 27 -28 0 -20 5 -24 30 -24 27 0 30 -3 30 -30 0 -27 3 -30 30 -30 27 0 30 -3 30 -30 0 -27 3 -30 30 -30 30 0 30 0 31 -57 3 -161 13 -217 34 -182 5 7 4 10 -2 6 -15 -10 -18 31 -19 253 0 193 0 193 3 27 2 -99 7 -167 13 -167 7 0 10 320 10 898 0 975 1 952 -57 1092 -38 92 -84 160 -158 229 -75 70 -132 105 -224 139 -139 51 -168 52 -1129 52 -794 0 -892 -2 -878 -15z m1141 -524 c3 -5 2 -12 -3 -15 -5 -3 -9 1 -9 9 0 17 3 19 12 6z m-110 -141 c3 -5 4 -10 1 -10 -3 0 -8 5 -11 10 -3 6 -4 10 -1 10 3 0 8 -4 11 -10z m-35 -62 c0 -5 -4 -6 -10 -3 -5 3 -10 1 -10 -5 0 -7 -6 -5 -15 4 -20 20 -19 32 2 15 15 -12 16 -12 10 5 -6 16 -5 17 8 6 8 -7 15 -17 15 -22z m277 10 c-3 -8 -6 -5 -6 6 -1 11 2 17 5 13 3 -3 4 -12 1 -19z m-297 -42 c0 -3 -5 -8 -12 -12 -7 -4 -8 -3 -4 4 7 12 16 16 16 8z m-30 -16 c0 -5 -7 -10 -15 -10 -8 0 -15 -7 -15 -16 0 -14 2 -15 18 -3 15 13 16 12 3 -3 -7 -10 -20 -18 -27 -18 -8 0 -14 -5 -14 -12 0 -6 -2 -9 -5 -6 -10 10 17 67 33 71 9 3 18 5 20 6 1 0 2 -3 2 -9z m287 -247 c-4 -3 -7 0 -7 7 0 7 3 10 7 7 3 -4 3 -10 0 -14z m240 -330 c-4 -3 -10 -3 -14 0 -3 4 0 7 7 7 7 0 10 -3 7 -7z"/>
 <path d="M1025 3454 c-82 -18 -106 -27 -90 -37 12 -6 20 -6 24 1 4 6 26 14 49 18 23 4 45 11 48 15 5 9 3 10 -31 3z"/>
 <path d="M1030 3414 l-25 -14 30 6 c35 8 39 10 28 17 -5 3 -19 -1 -33 -9z"/>
 <path d="M1080 3420 c0 -7 3 -10 7 -7 3 4 3 10 0 14 -4 3 -7 0 -7 -7z"/>
 <path d="M893 3413 c4 -3 10 -3 14 0 3 4 0 7 -7 7 -7 0 -10 -3 -7 -7z"/>
 <path d="M820 3384 c-25 -13 -34 -22 -21 -18 28 7 92 44 76 44 -5 -1 -30 -12 -55 -26z"/>
 <path d="M734 3328 c-4 -7 -3 -8 4 -4 7 4 12 9 12 12 0 8 -9 4 -16 -8z"/>
 <path d="M692 3297 c-31 -33 -27 -41 5 -11 14 13 24 26 21 29 -2 3 -14 -5 -26 -18z"/>
 <path d="M624 3228 c-4 -7 -3 -8 4 -4 7 4 12 9 12 12 0 8 -9 4 -16 -8z"/>
 <path d="M596 3193 c-6 -14 -5 -15 5 -6 7 7 10 15 7 18 -3 3 -9 -2 -12 -12z"/>
 <path d="M466 2873 c-6 -14 -5 -15 5 -6 7 7 10 15 7 18 -3 3 -9 -2 -12 -12z"/>
 <path d="M1970 2551 c0 -6 4 -13 10 -16 6 -3 7 1 4 9 -7 18 -14 21 -14 7z"/>
 <path d="M1940 2516 c0 -2 7 -7 16 -10 8 -3 12 -2 9 4 -6 10 -25 14 -25 6z"/>
 <path d="M1907 2455 c-15 -14 -24 -25 -19 -25 5 0 19 11 32 25 30 32 23 32 -13 0z"/>
 <path d="M1789 2323 c-13 -16 -12 -17 4 -4 9 7 17 15 17 17 0 8 -8 3 -21 -13z"/>
 <path d="M2350 2289 c0 -13 7 -33 15 -43 14 -19 15 -18 15 11 0 17 -7 36 -15 43 -13 10 -15 9 -15 -11z"/>
 <path d="M1734 2268 c-4 -7 -3 -8 4 -4 12 7 16 16 8 16 -3 0 -8 -5 -12 -12z"/>
 <path d="M1699 2233 c-13 -16 -12 -17 4 -4 9 7 17 15 17 17 0 8 -8 3 -21 -13z"/>
 <path d="M2340 2235 c0 -21 31 -53 62 -64 17 -6 29 -8 25 -5 -4 4 -1 14 6 23 10 14 10 14 -5 3 -17 -13 -58 -8 -58 7 0 12 -29 47 -30 36z"/>
 <path d="M1624 2158 c-4 -7 -3 -8 4 -4 12 7 16 16 8 16 -3 0 -8 -5 -12 -12z"/>
 <path d="M2475 2160 c-3 -5 -13 -7 -23 -4 -9 2 3 -5 27 -16 24 -11 46 -18 49 -15 3 3 0 5 -7 5 -7 0 -9 5 -5 11 3 6 0 15 -7 20 -18 11 -26 11 -34 -1z m22 -7 c-4 -3 -10 -3 -14 0 -3 4 0 7 7 7 7 0 10 -3 7 -7z"/>
 <path d="M2600 2000 c0 -7 3 -10 7 -7 3 4 3 10 0 14 -4 3 -7 0 -7 -7z"/>
 <path d="M2616 1974 c-4 -9 -4 -19 -1 -22 3 -3 5 0 5 6 0 7 7 9 18 5 15 -6 15 -5 3 10 -17 21 -17 21 -25 1z"/>
 <path d="M2653 1945 c-3 -9 -3 -29 0 -45 4 -16 2 -32 -3 -35 -14 -9 -12 -25 3 -25 8 0 12 18 12 60 0 63 -2 70 -12 45z"/>
 <path d="M2620 1925 c0 -11 5 -27 10 -35 8 -12 10 -12 10 5 0 11 -5 27 -10 35 -8 12 -10 12 -10 -5z"/>
 <path d="M2651 1784 c0 -11 3 -14 6 -6 3 7 2 16 -1 19 -3 4 -6 -2 -5 -13z"/>
 <path d="M2040 1784 c0 -7 52 -25 57 -20 2 2 -10 8 -26 14 -17 6 -31 9 -31 6z"/>
 <path d="M2661 1753 c-1 -6 2 -19 5 -27 6 -15 8 -15 20 1 16 22 18 33 4 33 -5 0 -10 -8 -11 -17 0 -15 -2 -15 -9 2 -5 11 -9 15 -9 8z"/>
 <path d="M2706 1724 c-4 -14 -5 -28 -3 -31 3 -2 8 8 11 23 4 14 5 28 3 31 -3 2 -8 -8 -11 -23z"/>
 <path d="M2133 1713 c4 -3 10 -3 14 0 3 4 0 7 -7 7 -7 0 -10 -3 -7 -7z"/>
 <path d="M2257 1699 c7 -7 15 -10 18 -7 3 3 -2 9 -12 12 -14 6 -15 5 -6 -5z"/>
 <path d="M2338 1668 c5 -5 16 -8 23 -6 8 3 3 7 -10 11 -17 4 -21 3 -13 -5z"/>
 <path d="M2687 1649 c4 -13 8 -18 11 -10 2 7 -1 18 -6 23 -8 8 -9 4 -5 -13z"/>
 <path d="M2183 1623 c4 -3 10 -3 14 0 3 4 0 7 -7 7 -7 0 -10 -3 -7 -7z"/>
 <path d="M2712 1610 c0 -14 2 -19 5 -12 2 6 2 18 0 25 -3 6 -5 1 -5 -13z"/>
 <path d="M2490 1610 c8 -5 20 -10 25 -10 6 0 3 5 -5 10 -8 5 -19 10 -25 10 -5 0 -3 -5 5 -10z"/>
 <path d="M2230 1606 c0 -2 7 -7 16 -10 8 -3 12 -2 9 4 -6 10 -25 14 -25 6z"/>
 <path d="M2533 1593 c4 -3 10 -3 14 0 3 4 0 7 -7 7 -7 0 -10 -3 -7 -7z"/>
 <path d="M2690 1580 c0 -7 3 -10 7 -7 3 4 3 10 0 14 -4 3 -7 0 -7 -7z"/>
 <path d="M2655 1560 c-16 -7 -17 -9 -3 -9 9 -1 20 4 23 9 7 11 7 11 -20 0z"/>
 <path d="M2360 1556 c0 -2 7 -7 16 -10 8 -3 12 -2 9 4 -6 10 -25 14 -25 6z"/>
 <path d="M2460 1516 c0 -2 7 -7 16 -10 8 -3 12 -2 9 4 -6 10 -25 14 -25 6z"/>
 <path d="M2540 1486 c0 -2 7 -7 16 -10 8 -3 12 -2 9 4 -6 10 -25 14 -25 6z"/>
 <path d="M2743 1453 c4 -3 10 -3 14 0 3 4 0 7 -7 7 -7 0 -10 -3 -7 -7z"/>
 <path d="M2653 1433 c4 -3 10 -3 14 0 3 4 0 7 -7 7 -7 0 -10 -3 -7 -7z"/>
 <path d="M2733 1403 c4 -3 10 -3 14 0 3 4 0 7 -7 7 -7 0 -10 -3 -7 -7z"/>
 <path d="M2794 1328 c-4 -7 -3 -8 4 -4 12 7 16 16 8 16 -3 0 -8 -5 -12 -12z"/>
 <path d="M2800 1303 c0 -4 5 -15 10 -23 8 -13 10 -13 10 2 0 9 -4 20 -10 23 -5 3 -10 3 -10 -2z"/>
 <path d="M2247 1149 c7 -7 15 -10 18 -7 3 3 -2 9 -12 12 -14 6 -15 5 -6 -5z"/>
 <path d="M2896 1057 c3 -10 9 -15 12 -12 3 3 0 11 -7 18 -10 9 -11 8 -5 -6z"/>
 <path d="M3582 1025 c0 -16 2 -22 5 -12 2 9 2 23 0 30 -3 6 -5 -1 -5 -18z"/>
 <path d="M2910 1020 c0 -7 3 -10 7 -7 3 4 3 10 0 14 -4 3 -7 0 -7 -7z"/>
 <path d="M2545 1010 c3 -5 8 -10 11 -10 3 0 2 5 -1 10 -3 6 -8 10 -11 10 -3 0 -2 -4 1 -10z"/>
 <path d="M2946 927 c3 -10 9 -15 12 -12 3 3 0 11 -7 18 -10 9 -11 8 -5 -6z"/>
 <path d="M2717 919 c7 -7 15 -10 18 -7 3 3 -2 9 -12 12 -14 6 -15 5 -6 -5z"/>
 <path d="M3561 878 c0 -28 2 -30 9 -13 12 28 12 45 0 45 -5 0 -10 -15 -9 -32z"/>
 <path d="M3510 820 c0 -7 3 -10 7 -7 3 4 3 10 0 14 -4 3 -7 0 -7 -7z"/>
 <path d="M3540 821 c0 -6 5 -13 10 -16 6 -3 10 1 10 9 0 9 -4 16 -10 16 -5 0 -10 -4 -10 -9z"/>
 <path d="M3530 760 c0 -7 3 -10 7 -7 3 4 3 10 0 14 -4 3 -7 0 -7 -7z"/>
 <path d="M3510 740 c0 -5 5 -10 11 -10 5 0 7 5 4 10 -3 6 -8 10 -11 10 -2 0 -4 -4 -4 -10z"/>
 <path d="M3494 678 c-4 -7 -3 -8 4 -4 12 7 16 16 8 16 -3 0 -8 -5 -12 -12z"/>
 <path d="M3364 518 c-4 -7 -3 -8 4 -4 7 4 12 9 12 12 0 8 -9 4 -16 -8z"/>
 <path d="M3153 390 c-34 -14 -28 -21 7 -9 17 6 30 13 30 15 0 6 -12 4 -37 -6z"/>
 <path d="M2903 333 c4 -3 10 -3 14 0 3 4 0 7 -7 7 -7 0 -10 -3 -7 -7z"/>
 </g>
<g id="layer107" fill="#58cfbd" stroke="none">
 <path d="M2112 3463 c81 -4 90 -6 120 -33 18 -17 43 -30 55 -30 19 0 23 -5 23 -30 0 -27 3 -30 30 -30 25 0 30 -4 30 -24 0 -19 7 -26 30 -31 23 -5 30 -12 30 -30 0 -18 6 -24 28 -27 21 -2 28 -9 30 -30 3 -22 9 -28 28 -28 20 0 24 -5 24 -30 0 -27 3 -30 30 -30 27 0 30 -3 30 -30 0 -25 4 -30 25 -30 21 0 25 -5 25 -30 0 -27 3 -30 30 -30 27 0 30 -3 30 -30 0 -27 3 -30 30 -30 27 0 30 -3 30 -30 0 -27 3 -30 30 -30 25 0 30 -4 30 -24 0 -19 7 -26 30 -31 23 -5 30 -12 30 -30 0 -18 7 -25 30 -30 23 -5 30 -12 30 -31 0 -19 5 -24 25 -24 21 0 25 -5 25 -30 0 -27 3 -30 30 -30 27 0 30 -3 30 -30 0 -27 3 -30 30 -30 27 0 30 -3 30 -30 0 -27 3 -30 30 -30 27 0 30 -3 30 -30 0 -27 3 -30 30 -30 27 0 30 -3 30 -30 0 -27 3 -30 30 -30 25 0 30 -4 30 -24 0 -19 7 -26 30 -31 23 -5 30 -12 30 -30 0 -18 7 -25 30 -30 23 -5 30 -12 30 -30 0 -18 6 -24 28 -27 21 -2 28 -9 30 -30 3 -22 9 -28 28 -28 20 0 24 -5 24 -30 0 -16 4 -30 9 -30 4 0 13 -28 18 -62 10 -59 10 -53 14 92 l3 155 6 -215 c4 -158 6 -85 8 280 2 537 0 555 -55 690 -38 92 -84 160 -158 229 -75 70 -132 105 -224 139 -128 47 -200 52 -681 50 -245 -1 -406 -4 -358 -5z"/>
 <path d="M2325 2950 c-3 -5 0 -7 9 -4 8 3 25 0 38 -6 22 -11 22 -10 4 4 -23 18 -42 20 -51 6z"/>
 <path d="M2284 2908 c-4 -7 -3 -8 4 -4 12 7 16 16 8 16 -3 0 -8 -5 -12 -12z"/>
 <path d="M2394 2900 c0 -13 4 -16 10 -10 7 7 7 13 0 20 -6 6 -10 3 -10 -10z"/>
 <path d="M2420 2900 c0 -7 3 -10 7 -7 3 4 3 10 0 14 -4 3 -7 0 -7 -7z"/>
 <path d="M2234 2838 c-4 -7 -3 -8 4 -4 12 7 16 16 8 16 -3 0 -8 -5 -12 -12z"/>
 <path d="M2390 2840 c0 -7 3 -10 7 -7 3 4 3 10 0 14 -4 3 -7 0 -7 -7z"/>
 <path d="M2189 2783 c-13 -16 -12 -17 4 -4 16 13 21 21 13 21 -2 0 -10 -8 -17 -17z"/>
 <path d="M2151 2744 c-7 -8 -11 -17 -9 -20 3 -2 13 5 23 16 10 11 14 20 9 20 -5 -1 -15 -8 -23 -16z"/>
 <path d="M2054 2618 c-4 -7 -3 -8 4 -4 7 4 12 9 12 12 0 8 -9 4 -16 -8z"/>
 <path d="M2030 2590 c0 -7 3 -10 7 -7 3 4 3 10 0 14 -4 3 -7 0 -7 -7z"/>
 </g>
<g id="layer108" fill="#62dabc" stroke="none">
 <path d="M2603 3463 c59 -2 155 -2 215 0 59 1 10 3 -108 3 -118 0 -167 -2 -107 -3z"/>
 <path d="M2985 3451 c11 -5 31 -10 44 -10 13 -1 21 -4 18 -8 -4 -3 -25 -6 -47 -5 -50 2 -51 -4 -3 -17 28 -8 44 -7 65 3 15 8 28 10 28 5 0 -5 4 -8 9 -6 14 3 90 -83 93 -107 2 -14 11 -22 30 -24 21 -3 27 -9 30 -30 2 -21 9 -28 30 -30 21 -3 27 -9 30 -30 2 -21 9 -28 31 -30 21 -3 27 -9 27 -28 0 -20 5 -24 30 -24 27 0 30 -3 30 -30 0 -27 3 -30 30 -30 26 0 31 -5 36 -29 4 -21 12 -29 25 -28 10 1 21 7 24 15 3 8 0 10 -6 6 -8 -4 -9 1 -4 16 5 17 4 21 -5 15 -8 -5 -11 -4 -6 3 8 14 -33 104 -45 96 -5 -3 -6 2 -3 10 7 19 -149 182 -165 172 -6 -4 -10 -2 -9 4 5 20 -107 77 -144 73 -23 -2 -27 -1 -15 5 15 6 7 11 -35 24 -62 19 -154 33 -123 19z m52 -38 c-4 -3 -10 -3 -14 0 -3 4 0 7 7 7 7 0 10 -3 7 -7z m208 -47 c24 -10 35 -22 35 -35 0 -13 7 -21 18 -21 18 -1 63 -30 46 -30 -6 0 -14 3 -18 8 -4 4 -11 7 -14 7 -31 3 -53 19 -49 36 4 15 -2 20 -29 25 -19 3 -34 10 -34 15 0 12 5 11 45 -5z m-18 -23 c-4 -3 -10 -3 -14 0 -3 4 0 7 7 7 7 0 10 -3 7 -7z m183 -118 c19 -21 21 -25 7 -25 -9 0 -17 7 -17 15 0 8 -4 15 -10 15 -5 0 -10 5 -10 10 0 15 4 13 30 -15z m-25 -25 c3 -5 1 -10 -4 -10 -6 0 -11 5 -11 10 0 6 2 10 4 10 3 0 8 -4 11 -10z m68 -81 c-8 -8 -13 -7 -18 2 -6 8 -4 10 5 4 9 -6 10 -2 5 16 -16 49 -15 53 2 21 12 -23 14 -35 6 -43z m-46 54 c-4 -3 -10 -3 -14 0 -3 4 0 7 7 7 7 0 10 -3 7 -7z m93 -78 c0 -5 -5 -3 -10 5 -5 8 -10 20 -10 25 0 6 5 3 10 -5 5 -8 10 -19 10 -25z m-3 -32 c-4 -3 -7 0 -7 7 0 7 3 10 7 7 3 -4 3 -10 0 -14z m21 -54 c-3 -8 -7 -3 -11 10 -4 17 -3 21 5 13 5 -5 8 -16 6 -23z"/>
 <path d="M3556 2955 c3 -22 5 -54 5 -71 -1 -21 3 -31 14 -31 8 0 15 4 15 9 0 4 -4 8 -9 8 -5 0 -7 8 -5 18 3 9 -2 37 -11 62 l-15 45 6 -40z"/>
 <path d="M2234 2838 c-4 -7 -3 -8 4 -4 12 7 16 16 8 16 -3 0 -8 -5 -12 -12z"/>
 <path d="M3577 2833 c-2 -5 -1 -30 3 -58 l7 -50 2 58 c1 54 -2 67 -12 50z"/>
 <path d="M3555 2800 c3 -5 8 -10 11 -10 2 0 4 5 4 10 0 6 -5 10 -11 10 -5 0 -7 -4 -4 -10z"/>
 </g>
<g id="layer109" fill="#62e2ba" stroke="none">
 <path d="M3003 3413 c4 -3 10 -3 14 0 3 4 0 7 -7 7 -7 0 -10 -3 -7 -7z"/>
 <path d="M3143 3413 c4 -3 10 -3 14 0 3 4 0 7 -7 7 -7 0 -10 -3 -7 -7z"/>
 <path d="M3200 3396 c0 -3 9 -10 20 -16 11 -6 20 -8 20 -6 0 3 -9 10 -20 16 -11 6 -20 8 -20 6z"/>
 <path d="M3285 3320 c3 -5 8 -10 11 -10 3 0 2 5 -1 10 -3 6 -8 10 -11 10 -3 0 -2 -4 1 -10z"/>
 <path d="M3324 3311 c4 -6 16 -16 28 -22 15 -8 18 -8 14 0 -4 6 -16 16 -28 22 -15 8 -18 8 -14 0z"/>
 <path d="M3510 3066 c0 -2 8 -10 18 -17 15 -13 16 -12 3 4 -13 16 -21 21 -21 13z"/>
 </g>

</svg>