<!DOCTYPE svg PUBLIC "-//W3C//DTD SVG 20010904//EN" "http://www.w3.org/TR/2001/REC-SVG-20010904/DTD/svg10.dtd">
<svg version="1.0" xmlns="http://www.w3.org/2000/svg" width="394px" height="381px" viewBox="0 0 3940 3810" preserveAspectRatio="xMidYMid meet">
<g id="layer101" fill="#9b9b9b" stroke="none">
 <path d="M1050 3455 c-230 -36 -414 -166 -509 -359 -81 -164 -76 -89 -76 -1196 0 -1105 -4 -1035 74 -1195 97 -197 280 -324 519 -360 142 -22 1791 -22 1933 0 239 36 419 161 519 360 79 158 74 86 78 1150 3 1000 2 1030 -43 1158 -64 184 -210 335 -392 403 -137 52 -185 54 -1138 53 -679 -1 -899 -4 -965 -14z m1334 -524 c15 -16 15 -31 7 -132 -33 -388 -44 -581 -35 -597 6 -9 53 -33 104 -53 51 -21 99 -44 107 -51 14 -15 70 -208 83 -288 4 -25 18 -84 31 -131 20 -73 21 -89 10 -103 -17 -20 -50 -20 -93 -2 -47 20 -97 39 -238 92 -432 161 -417 157 -440 130 -6 -8 -10 -25 -8 -38 3 -26 30 -41 163 -92 174 -66 411 -159 526 -207 64 -26 128 -51 141 -54 27 -7 28 -9 165 -369 60 -159 63 -170 48 -192 -8 -13 -23 -24 -32 -24 -9 0 -104 47 -212 104 -206 110 -260 136 -536 261 -199 90 -502 215 -521 215 -7 0 -39 11 -71 24 -32 14 -157 61 -278 106 -240 89 -265 101 -265 129 0 22 12 32 155 134 303 215 662 567 970 952 44 55 93 118 109 140 50 69 78 81 110 46z"/>
 </g>

</svg>