<!DOCTYPE svg PUBLIC "-//W3C//DTD SVG 20010904//EN" "http://www.w3.org/TR/2001/REC-SVG-20010904/DTD/svg10.dtd">
<svg version="1.0" xmlns="http://www.w3.org/2000/svg" width="394px" height="381px" viewBox="0 0 3940 3810" preserveAspectRatio="xMidYMid meet">
<g id="layer101" fill="#999999" stroke="none">
 <path d="M0 1905 l0 -1905 1970 0 1970 0 0 1905 0 1905 -1970 0 -1970 0 0 -1905z"/>
 </g>
<g id="layer102" fill="#f7f7f7" stroke="none">
 <path d="M0 1905 l0 -1905 1970 0 1970 0 0 1905 0 1905 -1970 0 -1970 0 0 -1905z m2991 1550 c171 -25 293 -86 404 -200 100 -103 161 -229 185 -380 7 -48 10 -376 8 -1020 -4 -1064 1 -992 -78 -1150 -100 -199 -280 -324 -519 -360 -142 -22 -1791 -22 -1933 0 -239 36 -422 163 -519 360 -78 160 -74 90 -74 1195 0 1107 -5 1032 76 1196 95 193 279 323 509 359 130 20 1807 21 1941 0z"/>
 <path d="M2318 2938 c-8 -7 -28 -31 -44 -53 -16 -22 -65 -85 -109 -140 -308 -385 -667 -737 -970 -952 -143 -102 -155 -112 -155 -134 0 -28 25 -40 265 -129 121 -45 246 -92 278 -106 32 -13 64 -24 71 -24 19 0 322 -125 521 -215 276 -125 330 -151 536 -261 108 -57 203 -104 212 -104 9 0 24 11 32 24 15 22 12 33 -48 192 -137 360 -138 362 -165 369 -13 3 -77 28 -141 54 -115 48 -352 141 -526 207 -133 51 -160 66 -163 92 -4 29 14 52 42 52 11 0 80 -22 151 -49 399 -149 433 -162 493 -187 43 -18 76 -18 93 2 11 14 10 30 -10 103 -13 47 -27 106 -31 131 -13 80 -69 273 -83 288 -8 7 -56 30 -107 51 -51 20 -98 44 -104 53 -9 16 2 209 35 597 8 101 8 116 -7 132 -20 22 -44 24 -66 7z"/>
 </g>

</svg>